<?xml version="1.0" encoding="UTF-8"?>
<svg fill="none" version="1.1" viewBox="0 0 90 90" xmlns="http://www.w3.org/2000/svg">
	<defs>
		<linearGradient id="linearGradient1633" x1="25.377" x2="82.154" y1="26.085" y2="82.862" gradientTransform="translate(-9,-9)" gradientUnits="userSpaceOnUse">
			<stop stop-color="#334155" offset="0"/>
			<stop stop-color="#1e293b" offset="1"/>
		</linearGradient>
		<clipPath id="clipPath1992">
			<rect width="90" height="90" fill="#e2e8f0" stroke-linecap="round" stroke-width="11.1"/>
		</clipPath>
	</defs>
	<g id="background">
		<path d="m-9-9h108v108h-108z" clip-path="url(#clipPath1992)" fill="url(#linearGradient1633)"/>
	</g>
	<g id="foreground">
		<path d="m32.292 33.5c-0.31533-6.34e-4 -0.63053 0.11903-0.8716 0.36017l-9.1949 9.2003-0.93106 0.91661c-0.24616 0.24244-0.36924 0.56328-0.36917 0.88419-0.0034 0.32032 0.11734 0.64109 0.36016 0.886l0.79776 0.80496 9.2058 9.4309c0.47634 0.48804 1.2574 0.49476 1.7433 0.01621l2.0493-2.0169c0.48583-0.47855 0.49254-1.2624 0.01621-1.7503l-7.1546-7.3311 7.241-7.2446c0.48215-0.48237 0.48377-1.2661 0.0036-1.7503l-2.0259-2.0421c-0.24007-0.24219-0.55446-0.36312-0.8698-0.36377zm7.5688 21.939c-0.63922-0.23374-0.9693-0.94171-0.73754-1.5815l6.9791-19.261c0.23188-0.63985 0.93791-0.96902 1.577-0.73532l2.6978 0.98634c0.63922 0.23374 0.9693 0.94171 0.73755 1.5815l-6.9791 19.261c-0.23188 0.63985-0.93791 0.96902-1.577 0.73532zm17.848-21.939c-0.31533 6.34e-4 -0.62971 0.12158-0.86979 0.36377l-2.026 2.0421c-0.48028 0.48434-0.47849 1.268 0.0036 1.7503l7.241 7.2446-7.1546 7.3311c-0.47646 0.48804-0.46973 1.2719 0.01621 1.7503l2.0493 2.0169c0.48595 0.47855 1.2667 0.47182 1.7433-0.01621l9.2058-9.4309 0.79776-0.80496c0.24286-0.24492 0.36355-0.56568 0.36016-0.886 8.9e-5 -0.32093-0.12298-0.64177-0.36917-0.8842l-0.93102-0.91661-9.1949-9.2003c-0.2411-0.24112-0.5563-0.36079-0.87163-0.36016z" fill="#e2e8f0"/>
	</g>
</svg>
