<?xml version="1.0" encoding="UTF-8"?>
<svg fill="none" version="1.1" viewBox="0 0 108 108" xmlns="http://www.w3.org/2000/svg">
	<defs>
		<linearGradient id="linearGradient1633" x1="25.377" x2="82.154" y1="26.085" y2="82.862" gradientUnits="userSpaceOnUse">
			<stop stop-color="#334155" offset="0"/>
			<stop stop-color="#1e293b" offset="1"/>
		</linearGradient>
	</defs>
	<g id="background">
		<path d="m0 0h108v108h-108z" fill="url(#linearGradient1633)"/>
	</g>
	<g id="foreground">
		<path d="m42.349 43.456c-0.28911-5.81e-4 -0.5781 0.10913-0.79912 0.33022l-8.4303 8.4353-0.85364 0.84039c-0.22569 0.22228-0.33854 0.51644-0.33847 0.81067-0.0031 0.29368 0.10758 0.58778 0.33021 0.81233l0.73142 0.73802 8.4403 8.6467c0.43673 0.44746 1.1528 0.45362 1.5983 0.01486l1.8789-1.8492c0.44543-0.43876 0.45158-1.1574 0.01486-1.6048l-6.5597-6.7215 6.6389-6.6422c0.44206-0.44226 0.44354-1.1608 0.0033-1.6048l-1.8574-1.8723c-0.22011-0.22205-0.50835-0.33293-0.79747-0.33352zm6.9394 20.115c-0.58607-0.2143-0.8887-0.8634-0.67621-1.45l6.3988-17.659c0.2126-0.58664 0.85992-0.88844 1.4459-0.67418l2.4735 0.90432c0.58607 0.2143 0.8887 0.8634 0.67622 1.45l-6.3988 17.659c-0.2126 0.58664-0.85992 0.88844-1.4459 0.67418zm16.364-20.115c-0.28911 5.81e-4 -0.57735 0.11147-0.79746 0.33352l-1.8575 1.8723c-0.44034 0.44407-0.4387 1.1626 0.0033 1.6048l6.6389 6.6422-6.5597 6.7215c-0.43684 0.44746-0.43067 1.1661 0.01486 1.6048l1.8789 1.8492c0.44554 0.43876 1.1614 0.43259 1.5983-0.01486l8.4403-8.6467 0.73142-0.73802c0.22267-0.22455 0.33332-0.51864 0.33021-0.81233 8.2e-5 -0.29424-0.11275-0.5884-0.33847-0.81067l-0.8536-0.84039-8.4303-8.4353c-0.22105-0.22107-0.51004-0.33079-0.79915-0.33021z" fill="#e2e8f0"/>
	</g>
</svg>
