<?xml version="1.0" encoding="UTF-8"?>
<svg version="1.1" viewBox="0 0 72 72" xmlns="http://www.w3.org/2000/svg">
	<path d="m36 0a36 36 0 0 0-36 36 36 36 0 0 0 36 36 36 36 0 0 0 36-36 36 36 0 0 0-36-36zm-11.65 25.455v2e-3c0.2891 6e-4 0.57678 0.10993 0.79688 0.33203l1.8574 1.873c0.4402 0.444 0.43809 1.1632-0.0039 1.6055l-6.6387 6.6406 6.5605 6.7227c0.4367 0.4474 0.42978 1.1647-0.01563 1.6035l-1.8789 1.8496c-0.4455 0.4388-1.161 0.43383-1.5977-0.01367l-8.4414-8.6465-0.73047-0.73828c-0.2227-0.2245-0.33318-0.5188-0.33008-0.8125-1e-4 -0.2942 0.11219-0.58825 0.33789-0.81055l0.85352-0.8418 8.4316-8.4336c0.221-0.2211 0.50973-0.33263 0.79883-0.33203zm23.303 0c0.2891-5e-4 0.57773 0.10898 0.79883 0.33008l8.4316 8.4355 0.85352 0.8418c0.2257 0.2223 0.33799 0.51635 0.33789 0.81055 0.0031 0.2937-0.10738 0.588-0.33008 0.8125l-0.73242 0.73633-8.4395 8.6484c-0.4369 0.4474-1.1522 0.45247-1.5977 0.01367l-1.8789-1.8496c-0.4455-0.4387-0.45242-1.156-0.01563-1.6035l6.5586-6.7227-6.6387-6.6426c-0.442-0.4422-0.44225-1.1594-2e-3 -1.6035l1.8574-1.873c0.2202-0.222 0.50778-0.33338 0.79688-0.33398zm-9.6387 0.26562c0.14641-0.0073 0.29686 0.01286 0.44336 0.06641l2.4727 0.9043c0.5861 0.2143 0.89023 0.86457 0.67773 1.4512l-6.4004 17.658c-0.2126 0.5867-0.85931 0.88813-1.4453 0.67383l-2.4727-0.9043c-0.5861-0.2143-0.89023-0.86262-0.67773-1.4492l6.4004-17.658c0.15945-0.43995 0.56272-0.72018 1.002-0.74219z" fill="#000"/>
</svg>
