<?xml version="1.0" encoding="UTF-8"?>
<svg fill="none" version="1.1" viewBox="0 0 72 72" xmlns="http://www.w3.org/2000/svg">
	<defs>
		<linearGradient id="linearGradient1633" x1="25.377" x2="82.154" y1="26.085" y2="82.862" gradientUnits="userSpaceOnUse">
			<stop stop-color="#334155" offset="0"/>
			<stop stop-color="#1e293b" offset="1"/>
		</linearGradient>
		<clipPath id="clipPath3681">
			<circle cx="54" cy="54" r="36" fill="#e2e8f0" stroke-linecap="round" stroke-width="11.1"/>
		</clipPath>
	</defs>
	<g id="background" transform="translate(-18,-18)">
		<path d="m0 0h108v108h-108z" clip-path="url(#clipPath3681)" fill="url(#linearGradient1633)"/>
	</g>
	<g id="foreground">
		<path d="m24.349 25.456c-0.2891-6e-4 -0.5781 0.1091-0.7991 0.3302l-8.4303 8.4353-0.8537 0.8404c-0.2257 0.2223-0.3385 0.5165-0.3384 0.8107-0.0031 0.2937 0.1075 0.5878 0.3302 0.8123l0.7314 0.738 8.4403 8.6467c0.4367 0.4475 1.1528 0.4537 1.5983 0.0149l1.8789-1.8492c0.4454-0.4388 0.4516-1.1574 0.0149-1.6048l-6.5597-6.7215 6.6389-6.6422c0.442-0.4423 0.4435-1.1608 0.0033-1.6048l-1.8574-1.8723c-0.2201-0.2221-0.5084-0.3329-0.7975-0.3335zm6.9394 20.115c-0.5861-0.2143-0.8887-0.8634-0.6762-1.45l6.3988-17.659c0.2126-0.5866 0.8599-0.8884 1.4459-0.6742l2.4735 0.9043c0.5861 0.2143 0.8887 0.8634 0.6762 1.45l-6.3988 17.659c-0.2126 0.5867-0.8599 0.8885-1.4459 0.6742zm16.364-20.115c-0.2891 6e-4 -0.5773 0.1115-0.7975 0.3335l-1.8575 1.8723c-0.4403 0.4441-0.4387 1.1626 0.0033 1.6048l6.6389 6.6422-6.5597 6.7215c-0.4368 0.4475-0.4306 1.1661 0.0149 1.6048l1.8789 1.8492c0.4455 0.4388 1.1614 0.4326 1.5983-0.0148l8.4403-8.6467 0.7314-0.7381c0.2227-0.2245 0.3333-0.5186 0.3302-0.8123 1e-4 -0.2942-0.1127-0.5884-0.3384-0.8107l-0.8536-0.8403-8.4303-8.4353c-0.2211-0.2211-0.5101-0.3308-0.7992-0.3303z" fill="#e2e8f0"/>
	</g>
</svg>
